<?xml version="1.0" encoding="iso-8859-1"?>
<!-- Generator: Adobe Illustrator 28.7.1, SVG Export Plug-In . SVG Version: 9.03 Build 54978)  -->
<svg version="1.1" id="Layer_1" xmlns="http://www.w3.org/2000/svg" xmlns:xlink="http://www.w3.org/1999/xlink" x="0px" y="0px"
	 viewBox="0 0 957.764 259.031" style="enable-background:new 0 0 957.764 259.031;" xml:space="preserve">
<g id="Logo__x26__Wordmark_Color">
	<g id="White_00000094608363831537289440000006119266611853045407_">
		<g id="WordMark_00000127039764075460520080000015698963445958606994_">
			<path style="fill:#3F70B7;" d="M740.095,133.491l8.309-18.252h50.652l8.142,18.252h19.921L783.69,36.64h-19.937l-43.429,96.851
				H740.095z M773.713,52.623c1.635,6.657,13.13,21.189,12.029,32.517c-0.433,4.772-3.453,7.241-6.34,8.526
				c-3.604,1.568-7.758,1.568-11.345,0c-2.903-1.285-5.906-3.754-6.357-8.526C760.6,73.812,772.095,59.28,773.713,52.623z"/>
			<path style="fill:#3F70B7;" d="M323.435,133.228c13.976,0,26.844-4.372,36.807-13.78l-12.454-12.058
				c-6.364,6.096-15.911,9.408-24.352,9.408c-23.937,0-33.208-16.032-33.346-31.402c-0.138-15.504,9.962-32.198,33.346-32.198
				c8.441,0,17.02,2.782,23.385,8.744l12.177-11.262c-9.962-9.408-22.417-14.178-35.562-14.178
				c-35.006,0-51.47,24.646-51.333,48.894C272.24,109.51,287.462,133.228,323.435,133.228z"/>
			<path style="fill:#3F70B7;" d="M454.33,68.741c0-16.742-12.038-31.963-34.868-32.101c-15.358,0-30.716-0.138-46.076-0.138v96.994
				h18.264v-32.379h17.573l28.227,32.379h21.723v-1.245l-29.334-33.07C448.242,95.446,454.33,82.025,454.33,68.741z M391.651,84.654
				V53.66h27.811c11.485,0,16.603,7.749,16.603,15.497s-4.981,15.497-16.603,15.497H391.651z"/>
			<polygon style="fill:#3F70B7;" points="504.094,76.628 479.464,36.64 457.741,36.64 457.741,37.47 494.961,93.509
				494.961,133.497 513.226,133.497 513.226,93.509 551.83,37.47 551.83,36.64 529.829,36.64 			"/>
			<path style="fill:#3F70B7;" d="M636.6,104.347c0-21.831-18.818-26.799-39.018-29.151c-11.625-1.308-21.587-3.53-21.587-11.504
				c0-6.797,6.503-12.157,20.065-12.157c10.515,0,19.647,4.966,22.967,10.195l14.528-7.058
				c-7.333-14.118-22.967-18.171-38.049-18.171c-17.849,0.13-37.497,7.843-37.497,26.667c0,20.523,18.264,25.491,38.051,27.713
				c12.867,1.306,22.414,4.836,22.414,13.465c0,9.935-10.792,13.725-22.276,13.725c-11.761,0-22.968-4.446-27.258-14.511
				l-15.221,7.451c7.195,16.732,22.417,22.484,42.201,22.484C617.507,133.497,636.6,124.74,636.6,104.347z"/>
			<path style="fill:#3F70B7;" d="M677.321,133.497h18.263V53.244h30.718V36.64c-28.088,0-51.75,0-79.699,0v16.604h30.718V133.497z"
				/>
			<polygon style="fill:#3F70B7;" points="859.273,116.615 859.273,36.64 841.009,36.64 841.009,133.497 909.085,133.497
				909.085,116.615 			"/>
			<polygon style="fill:#3F70B7;" points="339.607,210.705 320.872,155.048 316.83,155.048 298.094,210.705 279.357,155.048
				272.101,155.048 294.879,219.523 301.491,219.523 311.136,191.786 318.85,167.537 326.658,191.876 336.301,219.523
				342.823,219.523 365.6,155.048 358.437,155.048 			"/>
			<path style="fill:#3F70B7;" d="M406.92,182.234c-3.397-6.431-10.837-9.644-17.816-9.644c-12.859,0-23.238,8.999-23.238,23.328
				c0,14.419,10.287,23.604,23.146,23.604c6.797,0,14.053-3.215,18-9.92v9.001h5.694c0-15.154,0-30.217,0-45.371h-5.786V182.234z
				 M389.286,213.737c-9.552,0-17.266-7.073-17.266-17.818c0-10.655,7.714-17.726,17.266-17.726
				C412.706,178.192,412.706,213.737,389.286,213.737z"/>
			<path style="fill:#3F70B7;" d="M446.227,213.92c-6.152,0-7.714-3.766-7.714-9.46v-25.627h14.695V173.6h-14.695v-13.502
				l-6.155,0.643V173.6h-9.276v5.233h9.276v25.627c0,9.46,3.95,15.154,13.684,15.061c2.938,0,5.787-0.827,8.727-2.204l-1.93-5.143
				C450.635,213.185,448.338,213.92,446.227,213.92z"/>
			<path style="fill:#3F70B7;" d="M482.962,172.498c-13.502,0-23.239,9.828-23.239,23.42c0,14.511,10.013,23.604,23.512,23.604
				c7.166,0,14.972-2.847,19.473-8.451l-4.134-3.674c-3.213,4.042-9.826,6.247-15.338,6.247c-8.999,0-16.347-5.604-17.174-15.064
				h39.493C507.299,180.672,496.462,172.498,482.962,172.498z M466.062,193.345c1.193-9.826,7.898-15.338,16.992-15.338
				c9.091,0,16.531,5.42,16.715,15.338H466.062z"/>
			<path style="fill:#3F70B7;" d="M522.635,181.591l-0.369-7.44h-5.786v45.371h6.155v-25.809c0-8.267,6.244-14.237,14.053-14.327
				c2.938,0,5.509,0.827,7.806,2.386l2.846-5.143c-3.305-2.294-6.152-3.213-10.287-3.213
				C531.636,173.417,525.573,175.529,522.635,181.591z"/>
			<path style="fill:#3F70B7;" d="M609.696,190.683l-23.512-35.451c-2.939,0-4.959,0-7.898,0v64.29h6.428v-55.291l24.063,35.729
				h1.838l23.97-35.268v54.83h6.431v-64.29h-8.085L609.696,190.683z"/>
			<path style="fill:#3F70B7;" d="M676.465,172.59c-13.594,0-23.33,9.552-23.33,23.604c0,14.053,10.104,23.328,23.33,23.328
				c13.407,0,23.328-9.275,23.328-23.328C699.793,182.142,689.691,172.59,676.465,172.59z M676.465,213.737
				c-10.013,0-17.176-6.981-17.176-17.542c0-10.471,7.072-18.003,17.176-18.003c10.102,0,17.174,7.532,17.174,18.003
				C693.638,206.755,686.659,213.737,676.465,213.737z"/>
			<path style="fill:#3F70B7;" d="M733.035,173.417c-6.155,0-12.032,2.571-15.798,8.356l-0.184-7.622h-5.878v45.371h6.154v-24.705
				c0-8.725,6.063-15.522,14.88-15.614c9.091,0,14.785,5.143,14.785,14.879v25.44h6.247V193.99
				C753.24,180.396,744.791,173.417,733.035,173.417z"/>
			<rect x="767.011" y="173.968" style="fill:#3F70B7;" width="6.155" height="45.555"/>
			<path style="fill:#3F70B7;" d="M765.818,159.915c0,5.786,8.726,5.786,8.726,0C774.543,154.129,765.818,154.129,765.818,159.915z"
				/>
			<path style="fill:#3F70B7;" d="M806.686,213.92c-6.152,0-7.714-3.766-7.714-9.46v-25.627h14.695V173.6h-14.695v-13.502
				l-6.155,0.643V173.6h-9.276v5.233h9.276v25.627c0,9.46,3.95,15.154,13.684,15.061c2.939,0,5.788-0.827,8.727-2.204l-1.931-5.143
				C811.095,213.185,808.799,213.92,806.686,213.92z"/>
			<path style="fill:#3F70B7;" d="M843.514,172.59c-13.594,0-23.33,9.552-23.33,23.604c0,14.053,10.104,23.328,23.33,23.328
				c13.407,0,23.328-9.275,23.328-23.328C866.842,182.142,856.74,172.59,843.514,172.59z M843.514,213.737
				c-10.012,0-17.176-6.981-17.176-17.542c0-10.471,7.072-18.003,17.176-18.003c10.102,0,17.174,7.532,17.174,18.003
				C860.688,206.755,853.708,213.737,843.514,213.737z"/>
			<path style="fill:#3F70B7;" d="M884.38,181.591l-0.368-7.44h-5.786v45.371h6.155v-25.809c0-8.267,6.244-14.237,14.053-14.327
				c2.939,0,5.509,0.827,7.806,2.386l2.846-5.143c-3.305-2.294-6.152-3.213-10.287-3.213
				C893.381,173.417,887.319,175.529,884.38,181.591z"/>
		</g>
		<g>
			<path style="fill:#3F70B7;" d="M918.857,36.478v0.985h-4.233v11.152h-1.155V37.463h-4.217v-0.985H918.857z"/>
			<path style="fill:#3F70B7;" d="M921.662,36.478l4.029,10.642l4.182-10.642h1.7v12.138h-1.156V38.127h-0.033l-4.148,10.489h-1.088
				l-3.995-10.489h-0.034v10.489h-1.155V36.478H921.662z"/>
		</g>
	</g>
	<g>
		<g>
			<g>
				<g>
					<polygon style="fill:#3F70B7;" points="76.914,79.645 90.392,46.87 44.92,49.015 43.963,93.393 					"/>
					<polygon style="fill:#84CDF2;" points="177.411,179.631 163.933,212.406 209.404,210.262 210.362,165.884 					"/>
					<polygon style="fill:#84CDF2;" points="41.616,94.668 41.511,94.416 41.615,94.373 43.073,49.203 11.999,127.941
						41.617,94.796 					"/>
					<polygon style="fill:#84CDF2;" points="212.289,93.786 212.38,93.876 212.633,93.98 212.59,94.083 242.325,125.486
						209.93,48.177 					"/>
					<polygon style="fill:#3F70B7;" points="56.281,129.819 42.636,97.113 11.999,130.783 42.702,162.84 					"/>
					<polygon style="fill:#49A4DC;" points="91.4,44.42 91.504,44.168 91.607,44.21 123.492,14.475 45.051,46.74 91.31,44.511
						"/>
					<polygon style="fill:#3F70B7;" points="198.044,129.457 211.689,162.163 242.325,128.494 211.623,96.436 					"/>
					<polygon style="fill:#3F70B7;" points="212.708,164.608 212.814,164.861 212.71,164.904 211.696,207.658 242.325,131.942
						212.708,164.481 					"/>
					<polygon style="fill:#49A4DC;" points="126.982,58.757 159.687,45.112 126.018,14.475 93.96,45.178 					"/>
					<polygon style="fill:#3F70B7;" points="162.132,44.092 162.385,43.987 162.428,44.09 207.142,45.389 128.521,13.942
						162.005,44.093 					"/>
					<polygon style="fill:#49A4DC;" points="177.155,79.39 209.93,92.868 207.785,47.396 163.408,46.438 					"/>
					<polygon style="fill:#49A4DC;" points="196.777,132.536 178.677,176.552 209.735,163.595 					"/>
					<polygon style="fill:#84CDF2;" points="57.563,132.891 44.764,164.015 75.888,176.814 					"/>
					<polygon style="fill:#84CDF2;" points="196.762,126.385 209.561,95.261 178.437,82.462 					"/>
					<polygon style="fill:#3F70B7;" points="93.206,212.211 124.265,199.253 80.248,181.152 					"/>
					<polygon style="fill:#84CDF2;" points="79.986,78.364 123.91,60.039 92.785,47.24 					"/>
					<polygon style="fill:#3F70B7;" points="161.119,47.065 130.06,60.023 174.077,78.124 					"/>
					<polygon style="fill:#3F70B7;" points="175.358,81.196 126.988,61.305 78.72,81.442 58.829,129.812 78.967,178.081
						127.337,197.972 175.605,177.834 195.496,129.464 					"/>
					<polygon style="fill:#49A4DC;" points="57.547,126.74 75.648,82.724 44.59,95.682 					"/>
					<polygon style="fill:#84CDF2;" points="174.339,180.913 130.415,199.238 161.539,212.037 					"/>
					<polygon style="fill:#49A4DC;" points="162.925,214.856 162.821,215.109 162.717,215.066 131.45,244.596 208.286,212.406
						163.015,214.765 					"/>
					<polygon style="fill:#49A4DC;" points="77.17,179.886 44.394,166.408 46.539,211.881 90.917,212.838 					"/>
					<polygon style="fill:#49A4DC;" points="127.343,200.519 94.637,214.164 128.307,244.801 160.364,214.099 					"/>
					<polygon style="fill:#84CDF2;" points="41.944,165.401 41.692,165.297 41.735,165.193 11.999,133.525 43.997,208.789
						42.035,165.49 					"/>
					<polygon style="fill:#3F70B7;" points="92.193,215.184 91.94,215.29 91.897,215.186 48.189,214.304 124.265,244.357
						92.32,215.184 					"/>
				</g>
			</g>
		</g>
		<linearGradient id="SVGID_1_" gradientUnits="userSpaceOnUse" x1="125.377" y1="154.8846" x2="125.377" y2="86.5715">
			<stop  offset="0" style="stop-color:#56B9E9"/>
			<stop  offset="1" style="stop-color:#325EAB"/>
		</linearGradient>
		<path style="fill:url(#SVGID_1_);" d="M189.841,122.293l-15.376-39.263c-0.137-0.056-47.417-19.5-47.417-19.5L79.729,83.272
			c0,0-18.816,45.756-18.816,45.757c0,0,29.502,14.749,65.911-2.288C163.933,109.375,189.567,122.847,189.841,122.293z"/>
	</g>
</g>
</svg>
