<?xml version="1.0" encoding="iso-8859-1"?>
<!-- Generator: Adobe Illustrator 28.7.1, SVG Export Plug-In . SVG Version: 9.03 Build 54978)  -->
<svg version="1.1" id="Layer_1" xmlns="http://www.w3.org/2000/svg" xmlns:xlink="http://www.w3.org/1999/xlink" x="0px" y="0px"
	 viewBox="0 0 640 640" style="enable-background:new 0 0 640 640;" xml:space="preserve">
<linearGradient id="SVGID_1_" gradientUnits="userSpaceOnUse" x1="-179.865" y1="-108.1528" x2="698.3339" y2="642.9715">
	<stop  offset="0" style="stop-color:#56B9E9"/>
	<stop  offset="1" style="stop-color:#325EAB"/>
</linearGradient>
<rect x="-3.621" y="-4.344" style="display:none;fill:url(#SVGID_1_);" width="648.687" height="648.687"/>
<g>
	<g>
		<polygon style="fill:#FFFFFF;" points="241.529,143.935 144.486,148.512 142.445,243.218 212.766,213.88 		"/>
		<polygon style="fill:#FFFFFF;" points="398.471,497.203 495.512,492.627 497.556,397.92 427.235,427.259 		"/>
		<polygon style="fill:#FFFFFF;" points="137.437,245.94 137.212,245.401 137.433,245.309 140.545,148.912 74.231,316.947 
			137.439,246.212 		"/>
		<polygon style="fill:#FFFFFF;" points="501.864,244.249 502.402,244.47 502.312,244.692 565.769,311.708 496.634,146.723 
			501.67,244.057 		"/>
		<polygon style="fill:#FFFFFF;" points="168.734,320.955 139.613,251.157 74.231,323.012 139.754,391.425 		"/>
		<polygon style="fill:#FFFFFF;" points="243.68,138.705 243.902,138.167 244.122,138.258 312.167,74.8 144.766,143.656 
			243.488,138.9 		"/>
		<polygon style="fill:#FFFFFF;" points="471.267,320.183 500.387,389.98 565.769,318.126 500.247,249.713 		"/>
		<polygon style="fill:#FFFFFF;" points="502.564,395.197 502.789,395.737 502.568,395.83 500.403,487.071 565.769,325.485 
			502.562,394.926 		"/>
		<polygon style="fill:#FFFFFF;" points="319.614,169.302 389.412,140.182 317.557,74.8 249.144,140.323 		"/>
		<polygon style="fill:#FFFFFF;" points="394.63,138.006 395.169,137.781 395.261,138.002 490.685,140.774 322.9,73.662 
			394.358,138.007 		"/>
		<polygon style="fill:#FFFFFF;" points="426.69,213.335 496.634,242.098 492.057,145.057 397.351,143.013 		"/>
		<polygon style="fill:#FFFFFF;" points="468.566,326.753 429.937,420.688 496.218,393.035 		"/>
		<polygon style="fill:#FFFFFF;" points="210.576,421.248 171.468,327.511 144.154,393.933 		"/>
		<polygon style="fill:#FFFFFF;" points="429.425,219.891 468.532,313.627 495.847,247.205 		"/>
		<polygon style="fill:#FFFFFF;" points="313.816,469.134 219.881,430.505 247.534,496.787 		"/>
		<polygon style="fill:#FFFFFF;" points="219.322,211.145 313.059,172.037 246.637,144.723 		"/>
		<polygon style="fill:#FFFFFF;" points="326.185,172.004 420.12,210.633 392.466,144.351 		"/>
		<polygon style="fill:#FFFFFF;" points="465.83,320.198 422.855,217.189 319.629,174.739 216.62,217.715 174.171,320.941 
			217.146,423.949 320.372,466.399 423.381,423.423 		"/>
		<polygon style="fill:#FFFFFF;" points="143.782,248.103 171.435,314.385 210.064,220.45 		"/>
		<polygon style="fill:#FFFFFF;" points="420.679,429.994 326.942,469.101 393.364,496.416 		"/>
		<polygon style="fill:#FFFFFF;" points="396.321,502.431 396.099,502.971 395.878,502.88 329.151,565.9 493.126,497.203 
			396.512,502.238 		"/>
		<polygon style="fill:#FFFFFF;" points="213.311,427.803 143.366,399.04 147.942,496.082 242.649,498.125 		"/>
		<polygon style="fill:#FFFFFF;" points="320.386,471.836 250.589,500.956 322.443,566.338 390.856,500.815 		"/>
		<polygon style="fill:#FFFFFF;" points="138.136,396.89 137.598,396.668 137.689,396.447 74.231,328.863 142.517,489.483 
			138.331,397.081 		"/>
		<polygon style="fill:#FFFFFF;" points="245.372,503.132 244.832,503.358 244.74,503.136 151.465,501.253 313.816,565.391 
			245.643,503.131 		"/>
	</g>
</g>
</svg>
