<?xml version="1.0" encoding="UTF-8"?>
<svg width="1000px" height="1000px" viewBox="0 0 1000 1000" version="1.1" xmlns="http://www.w3.org/2000/svg" xmlns:xlink="http://www.w3.org/1999/xlink">
    <title>Gray Disc</title>
    <g id="gray-disc" stroke="none" stroke-width="1" fill="none" fill-rule="evenodd">
        <g id="disc" transform="translate(0, 0)" fill-rule="nonzero">
            <g id="color1" fill="#757575">
                <polygon id="Polygon" transform="translate(500, 500) rotate(22.5) translate(-500, -500)" points="499.999998 117.316564 770.598046 229.40194 882.683425 499.999983 770.59804 770.598027 499.99999 882.683409 229.401943 770.598033 117.316564 499.99999 229.401948 229.401946"/>
                <polygon id="Path-9" points="499.531599 65.7924806 646.446609 146.446604 652.28322 129.067483"/>
                <polygon id="Path-12" points="870.180309 345.894914 853.553391 353.55338 934.207518 500.468386"/>
                <polygon id="Path-13" points="934.207518 500.468386 853.553391 646.44659 870.751424 653.693857"/>
            </g>
            <g id="color2" transform="translate(64.8557, 129.0675)" fill="#7a7a7a">
                <polygon id="2" points="81.5909285 224.485898 0 371.400903 81.5909285 517.379107"/>
                <polygon id="2" points="587.427538 0 581.590928 17.3791219 742.038207 64.0386225"/>
                <polygon id="2" points="742.038207 64.0386225 788.69771 224.485898 805.324628 216.828739"/>
                <polygon id="2" points="788.69771 517.379107 805.895743 524.626373 742.038207 678.763184"/>
            </g>
            <g id="color3" transform="translate(146.4466, 65.7925)" fill="#7e7e7e">
                <polygon id="3" points="207.106781 80.6541246 353.08499 0 500 80.6541246"/>
                <polygon id="3" points="0 287.7609 207.106781 80.6541246 45.7227004 127.313625"/>
                <polygon id="3" points="0 580.654111 45.7227004 742.038186 207.106781 787.760886"/>
                <path d="M500,787.760886 L207.106781,787.760886 C304.11332,842.154836 352.772723,869.351812 353.08499,869.351812 C353.397257,869.351812 402.368927,842.154836 500,787.760886 Z" id="3"/>
            </g>
            <g id="color4" transform="translate(347.2621, 65.7925)" fill="#838383">
                <polygon id="4" points="299.184515 787.760886 506.291296 580.654111 459.631793 742.038186"/>
                <polygon id="4" points="506.291296 287.7609 586.945423 434.675906 506.291296 580.654111"/>
                <polygon id="4" points="299.184515 80.6541246 459.631793 127.313625 506.291296 287.7609"/>
                <polygon id="4" points="3.59241606e-15 63.0609075 6.2912955 80.6541246 152.737905 0"/>
            </g>
            <g id="color5" transform="translate(192.1693, 128.8534)" fill="#888787">
                <polygon id="5" points="614.724579 678.97728 454.2773 724.699978 460.786832 742.788044"/>
                <polygon id="5" points="0 64.2527177 161.38408 17.5932172 155.092785 0"/>
            </g>
            <g id="color6" transform="translate(64.8557, 345.4337)" fill="#8d8c8c">
                <polygon id="6" points="581.590928 508.119663 588.100461 526.207728 434.675918 589.710588"/>
                <polygon id="6" points="127.313629 462.396963 288.69771 508.119663 281.835026 526.413036"/>
                <polygon id="6" points="0 155.034683 81.5909285 301.012886 63.9932116 309.470128"/>
                <polygon id="6" points="0 155.034683 81.5909285 8.11967607 64.2241958 0"/>
            </g>
            <g id="color7" transform="translate(128.8489, 193.1061)" fill="#919090">
                <polygon id="7" points="370.682707 742.038186 224.704498 660.447261 217.841814 678.740635"/>
                <polygon id="7" points="63.3204172 614.724562 17.5977168 453.340485 1.79620803e-15 461.797727"/>
                <polygon id="7" points="63.3204172 0 17.5977168 160.447274 0.230984134 152.327599"/>
            </g>
        </g>
    </g>
</svg>