<?xml version="1.0" encoding="iso-8859-1"?>
<!-- Generator: Adobe Illustrator 28.7.1, SVG Export Plug-In . SVG Version: 9.03 Build 54978)  -->
<svg version="1.1" id="Layer_1" xmlns="http://www.w3.org/2000/svg" xmlns:xlink="http://www.w3.org/1999/xlink" x="0px" y="0px"
	 viewBox="0 0 959 260" style="enable-background:new 0 0 959 260;" xml:space="preserve">
<g id="Logo__x26__Wordmark_White">
	<linearGradient id="SVGID_1_" gradientUnits="userSpaceOnUse" x1="-161.5114" y1="-149.4409" x2="938.6846" y2="330.1758">
		<stop  offset="0" style="stop-color:#56B9E9"/>
		<stop  offset="1" style="stop-color:#325EAB"/>
	</linearGradient>
	<rect style="display:none;fill:url(#SVGID_1_);" width="959" height="260"/>
	<g id="Crystal_00000122713684408088691260000006031191836923507355_">
		<polygon style="fill:#FFFFFF;" points="90.869,47.299 45.397,49.444 44.44,93.822 77.391,80.074 		"/>
		<polygon style="fill:#FFFFFF;" points="164.409,212.835 209.881,210.691 210.839,166.313 177.887,180.06 		"/>
		<polygon style="fill:#FFFFFF;" points="42.093,95.097 41.988,94.845 42.091,94.802 43.549,49.632 12.476,128.37 42.094,95.225 		
			"/>
		<polygon style="fill:#FFFFFF;" points="212.766,94.215 212.858,94.305 213.11,94.409 213.068,94.512 242.802,125.915 
			210.407,48.606 		"/>
		<polygon style="fill:#FFFFFF;" points="56.758,130.248 43.113,97.542 12.476,131.212 43.179,163.269 		"/>
		<polygon style="fill:#FFFFFF;" points="91.877,44.849 91.981,44.597 92.084,44.639 123.969,14.904 45.528,47.169 91.787,44.94 		
			"/>
		<polygon style="fill:#FFFFFF;" points="198.521,129.886 212.166,162.592 242.802,128.923 212.1,96.865 		"/>
		<polygon style="fill:#FFFFFF;" points="213.185,165.037 213.291,165.29 213.187,165.333 212.173,208.087 242.802,132.371 
			213.185,164.91 		"/>
		<polygon style="fill:#FFFFFF;" points="127.459,59.186 160.164,45.541 126.495,14.904 94.437,45.607 		"/>
		<polygon style="fill:#FFFFFF;" points="162.61,44.521 162.862,44.416 162.905,44.519 207.619,45.818 128.998,14.371 
			162.482,44.522 		"/>
		<polygon style="fill:#FFFFFF;" points="177.632,79.819 210.407,93.297 208.262,47.825 163.885,46.867 		"/>
		<polygon style="fill:#FFFFFF;" points="197.255,132.965 179.153,176.981 210.212,164.024 		"/>
		<polygon style="fill:#FFFFFF;" points="76.365,177.244 58.04,133.32 45.241,164.444 		"/>
		<polygon style="fill:#FFFFFF;" points="178.914,82.891 197.239,126.814 210.038,95.69 		"/>
		<polygon style="fill:#FFFFFF;" points="124.741,199.682 80.725,181.581 93.683,212.64 		"/>
		<polygon style="fill:#FFFFFF;" points="80.463,78.793 124.386,60.468 93.262,47.669 		"/>
		<polygon style="fill:#FFFFFF;" points="130.537,60.452 174.553,78.553 161.596,47.494 		"/>
		<polygon style="fill:#FFFFFF;" points="195.973,129.893 175.835,81.625 127.465,61.734 79.197,81.872 59.306,130.241 
			79.444,178.51 127.814,198.401 176.082,178.263 		"/>
		<polygon style="fill:#FFFFFF;" points="45.067,96.111 58.025,127.169 76.125,83.153 		"/>
		<polygon style="fill:#FFFFFF;" points="174.816,181.342 130.892,199.667 162.016,212.466 		"/>
		<polygon style="fill:#FFFFFF;" points="163.402,215.285 163.298,215.538 163.194,215.495 131.927,245.025 208.763,212.835 
			163.491,215.194 		"/>
		<polygon style="fill:#FFFFFF;" points="77.647,180.315 44.871,166.837 47.016,212.31 91.394,213.267 		"/>
		<polygon style="fill:#FFFFFF;" points="127.82,200.948 95.114,214.593 128.784,245.231 160.841,214.528 		"/>
		<polygon style="fill:#FFFFFF;" points="42.421,165.83 42.169,165.726 42.212,165.622 12.476,133.954 44.474,209.218 
			42.512,165.92 		"/>
		<polygon style="fill:#FFFFFF;" points="92.67,215.613 92.417,215.719 92.374,215.615 48.666,214.733 124.741,244.786 
			92.797,215.613 		"/>
	</g>
	<g id="WordMark_00000084503607621999754210000011661637074760000667_">
		<path style="fill:#FFFFFF;" d="M740.572,133.848l8.309-18.252h50.652l8.142,18.252h19.921l-43.429-96.851h-19.937l-43.429,96.851
			H740.572z M774.19,52.98c1.635,6.657,13.13,21.189,12.029,32.517c-0.433,4.772-3.453,7.241-6.34,8.526
			c-3.604,1.568-7.758,1.568-11.345,0c-2.903-1.285-5.906-3.754-6.357-8.526C761.077,74.169,772.573,59.637,774.19,52.98z"/>
		<path style="fill:#FFFFFF;" d="M323.912,133.585c13.976,0,26.844-4.372,36.807-13.78l-12.454-12.058
			c-6.364,6.096-15.911,9.408-24.352,9.408c-23.937,0-33.208-16.032-33.346-31.402c-0.138-15.504,9.962-32.198,33.346-32.198
			c8.441,0,17.02,2.782,23.385,8.744l12.177-11.262c-9.962-9.408-22.417-14.178-35.562-14.178c-35.006,0-51.47,24.646-51.333,48.894
			C272.717,109.867,287.939,133.585,323.912,133.585z"/>
		<path style="fill:#FFFFFF;" d="M454.807,69.099c0-16.742-12.038-31.963-34.868-32.101c-15.358,0-30.716-0.138-46.076-0.138v96.994
			h18.264v-32.379h17.573l28.227,32.379h21.723v-1.245l-29.334-33.07C448.719,95.803,454.807,82.382,454.807,69.099z
			 M392.128,85.011V54.017h27.811c11.485,0,16.603,7.749,16.603,15.497s-4.981,15.497-16.603,15.497H392.128z"/>
		<polygon style="fill:#FFFFFF;" points="504.571,76.985 479.941,36.998 458.218,36.998 458.218,37.827 495.438,93.867 
			495.438,133.854 513.703,133.854 513.703,93.867 552.307,37.827 552.307,36.998 530.306,36.998 		"/>
		<path style="fill:#FFFFFF;" d="M637.077,104.705c0-21.831-18.818-26.799-39.018-29.151c-11.625-1.308-21.587-3.53-21.587-11.504
			c0-6.797,6.503-12.157,20.065-12.157c10.516,0,19.647,4.966,22.967,10.195l14.528-7.058
			c-7.333-14.118-22.967-18.171-38.049-18.171c-17.849,0.13-37.497,7.843-37.497,26.667c0,20.523,18.264,25.491,38.051,27.713
			c12.867,1.306,22.414,4.836,22.414,13.465c0,9.935-10.792,13.725-22.277,13.725c-11.761,0-22.968-4.446-27.258-14.511
			l-15.221,7.451c7.195,16.732,22.417,22.484,42.201,22.484C617.984,133.854,637.077,125.097,637.077,104.705z"/>
		<path style="fill:#FFFFFF;" d="M677.798,133.854h18.263V53.602h30.718V36.998c-28.088,0-51.75,0-79.699,0v16.604h30.718V133.854z"
			/>
		<polygon style="fill:#FFFFFF;" points="859.75,116.972 859.75,36.998 841.486,36.998 841.486,133.854 909.562,133.854 
			909.562,116.972 		"/>
		<polygon style="fill:#FFFFFF;" points="340.084,211.063 321.349,155.405 317.307,155.405 298.571,211.063 279.834,155.405 
			272.578,155.405 295.356,219.88 301.969,219.88 311.613,192.143 319.327,167.894 327.135,192.233 336.778,219.88 343.3,219.88 
			366.077,155.405 358.914,155.405 		"/>
		<path style="fill:#FFFFFF;" d="M407.397,182.591c-3.397-6.431-10.837-9.644-17.816-9.644c-12.859,0-23.238,8.999-23.238,23.328
			c0,14.419,10.287,23.604,23.146,23.604c6.797,0,14.053-3.215,18-9.92v9.001h5.694c0-15.154,0-30.217,0-45.371h-5.786V182.591z
			 M389.763,214.094c-9.552,0-17.266-7.073-17.266-17.818c0-10.655,7.714-17.726,17.266-17.726
			C413.183,178.549,413.183,214.094,389.763,214.094z"/>
		<path style="fill:#FFFFFF;" d="M446.704,214.277c-6.152,0-7.714-3.766-7.714-9.46v-25.627h14.695v-5.233H438.99v-13.502
			l-6.155,0.643v12.859h-9.276v5.233h9.276v25.627c0,9.46,3.95,15.154,13.684,15.061c2.938,0,5.787-0.827,8.727-2.204l-1.93-5.143
			C451.112,213.542,448.815,214.277,446.704,214.277z"/>
		<path style="fill:#FFFFFF;" d="M483.439,172.855c-13.502,0-23.239,9.828-23.239,23.42c0,14.511,10.013,23.604,23.512,23.604
			c7.166,0,14.972-2.847,19.473-8.451l-4.134-3.674c-3.213,4.042-9.826,6.247-15.338,6.247c-8.999,0-16.347-5.604-17.174-15.064
			h39.493C507.776,181.03,496.939,172.855,483.439,172.855z M466.54,193.703c1.193-9.826,7.898-15.338,16.992-15.338
			c9.091,0,16.531,5.42,16.715,15.338H466.54z"/>
		<path style="fill:#FFFFFF;" d="M523.112,181.949l-0.369-7.44h-5.786v45.371h6.155v-25.809c0-8.267,6.244-14.237,14.053-14.327
			c2.938,0,5.509,0.827,7.806,2.386l2.846-5.143c-3.305-2.294-6.152-3.213-10.287-3.213
			C532.113,173.774,526.05,175.886,523.112,181.949z"/>
		<path style="fill:#FFFFFF;" d="M610.173,191.04l-23.512-35.451c-2.939,0-4.959,0-7.898,0v64.29h6.428v-55.291l24.063,35.729h1.838
			l23.97-35.268v54.83h6.431v-64.29h-8.085L610.173,191.04z"/>
		<path style="fill:#FFFFFF;" d="M676.942,172.947c-13.594,0-23.33,9.552-23.33,23.604c0,14.053,10.104,23.328,23.33,23.328
			c13.407,0,23.328-9.275,23.328-23.328C700.27,182.499,690.168,172.947,676.942,172.947z M676.942,214.094
			c-10.013,0-17.176-6.981-17.176-17.542c0-10.471,7.072-18.003,17.176-18.003c10.102,0,17.174,7.532,17.174,18.003
			C694.115,207.113,687.136,214.094,676.942,214.094z"/>
		<path style="fill:#FFFFFF;" d="M733.512,173.774c-6.155,0-12.032,2.571-15.798,8.356l-0.184-7.622h-5.878v45.371h6.154v-24.705
			c0-8.725,6.063-15.522,14.88-15.614c9.091,0,14.785,5.143,14.785,14.879v25.44h6.247v-25.532
			C753.717,180.753,745.268,173.774,733.512,173.774z"/>
		<rect x="767.488" y="174.325" style="fill:#FFFFFF;" width="6.155" height="45.555"/>
		<path style="fill:#FFFFFF;" d="M766.295,160.272c0,5.786,8.726,5.786,8.726,0C775.021,154.486,766.295,154.486,766.295,160.272z"
			/>
		<path style="fill:#FFFFFF;" d="M807.163,214.277c-6.152,0-7.714-3.766-7.714-9.46v-25.627h14.695v-5.233h-14.695v-13.502
			l-6.155,0.643v12.859h-9.276v5.233h9.276v25.627c0,9.46,3.95,15.154,13.684,15.061c2.939,0,5.788-0.827,8.727-2.204l-1.931-5.143
			C811.572,213.542,809.276,214.277,807.163,214.277z"/>
		<path style="fill:#FFFFFF;" d="M843.991,172.947c-13.594,0-23.33,9.552-23.33,23.604c0,14.053,10.104,23.328,23.33,23.328
			c13.407,0,23.328-9.275,23.328-23.328C867.319,182.499,857.217,172.947,843.991,172.947z M843.991,214.094
			c-10.012,0-17.176-6.981-17.176-17.542c0-10.471,7.072-18.003,17.176-18.003c10.102,0,17.174,7.532,17.174,18.003
			C861.165,207.113,854.186,214.094,843.991,214.094z"/>
		<path style="fill:#FFFFFF;" d="M884.857,181.949l-0.368-7.44h-5.786v45.371h6.155v-25.809c0-8.267,6.244-14.237,14.053-14.327
			c2.939,0,5.509,0.827,7.806,2.386l2.846-5.143c-3.305-2.294-6.152-3.213-10.287-3.213
			C893.858,173.774,887.796,175.886,884.857,181.949z"/>
	</g>
	<g id="TM_00000013893104361222849590000000374952824124501662_">
		<path style="fill:#FFFFFF;" d="M919.334,36.835v0.985h-4.233v11.152h-1.155V37.821h-4.217v-0.985H919.334z"/>
		<path style="fill:#FFFFFF;" d="M922.139,36.835l4.029,10.642l4.182-10.642h1.7v12.138h-1.156V38.484h-0.033l-4.148,10.489h-1.088
			l-3.995-10.489h-0.034v10.489h-1.155V36.835H922.139z"/>
	</g>
</g>
</svg>
